<mxfile host="app.diagrams.net" agent="Mozilla/5.0 (Windows NT 10.0; Win64; x64) AppleWebKit/537.36 (KHTML, like Gecko) Chrome/139.0.0.0 Safari/537.36 Edg/139.0.0.0" version="28.1.2">
  <diagram name="Page-1" id="d80PRzWp2PpETbzFHtkH">
    <mxGraphModel dx="760" dy="816" grid="0" gridSize="10" guides="1" tooltips="1" connect="1" arrows="1" fold="1" page="0" pageScale="1" pageWidth="827" pageHeight="1169" math="0" shadow="0">
      <root>
        <mxCell id="0" />
        <mxCell id="1" parent="0" />
        <mxCell id="UfMAd7jpGBlJGaEiq17c-1" value="start" style="ellipse;whiteSpace=wrap;html=1;aspect=fixed;" vertex="1" parent="1">
          <mxGeometry x="-118" y="-122" width="80" height="80" as="geometry" />
        </mxCell>
        <mxCell id="UfMAd7jpGBlJGaEiq17c-2" value="receipt captured&lt;div&gt;(camera scanner/input)&lt;/div&gt;" style="rounded=1;whiteSpace=wrap;html=1;" vertex="1" parent="1">
          <mxGeometry x="-138" y="-7" width="120" height="60" as="geometry" />
        </mxCell>
        <mxCell id="UfMAd7jpGBlJGaEiq17c-3" value="image preprocessing" style="rounded=1;whiteSpace=wrap;html=1;" vertex="1" parent="1">
          <mxGeometry x="-138" y="88" width="120" height="60" as="geometry" />
        </mxCell>
        <mxCell id="UfMAd7jpGBlJGaEiq17c-4" value="OCR TEXT EXTRACTION" style="rounded=1;whiteSpace=wrap;html=1;" vertex="1" parent="1">
          <mxGeometry x="-138" y="179" width="120" height="60" as="geometry" />
        </mxCell>
      </root>
    </mxGraphModel>
  </diagram>
</mxfile>
